<svg xmlns="http://www.w3.org/2000/svg" xmlns:xlink="http://www.w3.org/1999/xlink"
     viewBox="0 0 32 32">
    <style>
        g {
        transform-origin: center;
        }
    </style>
    <g fill="none" fill-rule="evenodd" stroke="none" stroke-width="2">
        <g fill="#929292">
            <path d="
         M16,29
         C23.1797021,29 29,23.1797021 29,16
         C29,8.8202979 23.1797021,3 16,3
         C8.8202979,3 3,8.8202979 3,16
         C3,23.1797021 8.8202979,29 16,29
         L16,29 Z
         M16,28
         C22.6274173,28 28,22.6274173 28,16
         C28,9.37258267 22.6274173,4 16,4
         C9.37258267,4 4,9.37258267 4,16
         C4,22.6274173 9.37258267,28 16,28
         L16,28
         Z
         "/>
            <g transform="param(transform) 0">
                <path d="
         M16,7
         C16,7 19,14 19,16
         C19,16.668068 19,16 19,16
         C19,17.6568542 17.6534829,19 16,19
         C14.3431458,19 13,17.6631378 13,16
         C13,16 13,17.2099991 13,16
         C13,14 16,7 16,7
         L16,7 Z M16,18
         C17.1045696,18 18,17.1045696 18,16
         C18,14.8954304 17.1045696,14 16,14
         C14.8954304,14 14,14.8954304 14,16
         C14,17.1045696 14.8954304,18 16,18
         L16,18
         Z
         " class="needle"/>
            </g>
        </g>
    </g>
    <script type="text/ecmascript"
            xlink:href="https://www.w3.org/TR/2009/WD-SVGParamPrimer-20090616/param.js"/>
</svg>
